PathFileType	4	(X/Y/Z)	Run_500 02
DataRate	CameraRate	NumFrames	NumMarkers	Units	OrigDataRate	OrigDataStartFrame	OrigNumFrames
100	100	5	42	mm	100	63	128
Frame#	Time	RASI			RPSI			RTH1			RTH2			RTH3			LTH1			LTH2			LTH3			RTB1			RTB2			RTB3			LTB1			LTB2			LTB3			RCAL			RTOE			RMT5			LCAL			LTOE			LMT5			LACR			RACR			CLAV			C7			RUA1			RUA2			RUA3			RLEL			LUA1			LUA2			LUA3			LLEL			LMEL			RFAsuperior			RFAradius			RFAulna			LFAsuperior			LFAradius			LPSI			RMEL			LFAulna			LASI			
		X1	Y1	Z1	X2	Y2	Z2	X3	Y3	Z3	X4	Y4	Z4	X5	Y5	Z5	X6	Y6	Z6	X7	Y7	Z7	X8	Y8	Z8	X9	Y9	Z9	X10	Y10	Z10	X11	Y11	Z11	X12	Y12	Z12	X13	Y13	Z13	X14	Y14	Z14	X15	Y15	Z15	X16	Y16	Z16	X17	Y17	Z17	X18	Y18	Z18	X19	Y19	Z19	X20	Y20	Z20	X21	Y21	Z21	X22	Y22	Z22	X23	Y23	Z23	X24	Y24	Z24	X25	Y25	Z25	X26	Y26	Z26	X27	Y27	Z27	X28	Y28	Z28	X29	Y29	Z29	X30	Y30	Z30	X31	Y31	Z31	X32	Y32	Z32	X33	Y33	Z33	X34	Y34	Z34	X35	Y35	Z35	X36	Y36	Z36	X37	Y37	Z37	X38	Y38	Z38	X39	Y39	Z39	X40	Y40	Z40	X41	Y41	Z41	X42	Y42	Z42	

47	1.01	1001.1547	1004.507592	-229.214447	842.288084	1069.376576	-300.069885	945.335109	901.706066	-176.134382	983.223072	759.92644	-201.317476	1118.222986	667.329057	-201.395005	924.882282	873.947939	-527.072345	815.825905	738.950683	-481.469616	838.1331740000001	597.600157	-467.819636	1093.489338	476.344217	-269.463658	1019.500474	526.932053	-194.675225	909.9249160000001	424.684111	-266.103835	799.822932	373.231831	-384.263527	666.271604	333.558313	-429.731191	644.148218	220.298303	-361.132377	735.690836	474.131162	-251.550374	838.561136	254.79596	-277.488679	801.735632	285.064666	-181.763828	456.423344	180.398337	-328.278971	661.251435	63.045964	-320.27356	594.047974	42.828422	-410.204793	985.957654	1495.363207	-521.57038	984.0409100000001	1488.810931	-194.885051	1045.15669	1453.436502	-321.423366	922.736283	1521.816586	-364.572743	851.122607	1427.884668	-142.365922	873.289549	1368.177257	-95.33181500000001	779.810518	1325.628961	-59.573998	727.141117	1286.516282	-31.103373	895.664542	1390.540916	-579.286282	929.961052	1312.951132	-596.553395	862.621444	1242.477128	-620.088725	849.484241	1177.726391	-638.6749160000001	826.03818	1159.621435	-545.549613	787.427893	1194.711074	-12.72934	914.249984	1081.726121	-76.91888400000001	869.260398	1054.797383	-33.708029	924.5719790000001	1140.14659	-631.7590729999999	1088.732607	1175.676734	-542.028055	846.985755	1075.625441	-414.427187	726.197528	1248.651315	-113.046308	1093.690841	1112.195714	-574.672244	1000.987586	1003.564712	-483.547457	
48	1.02	1003.279301	1013.469311	-228.272193	844.831972	1075.837022	-303.440545	947.802001	912.1030929999999	-172.773208	991.977051	770.635464	-199.750522	1129.708448	683.788256	-201.281127	927.3428290000001	875.539076	-526.107934	806.587045	749.930802	-482.14771	818.011658	607.733347	-468.589286	1120.659761	484.426836	-271.607074	1040.71582	525.328002	-197.020011	943.203487	410.183282	-268.575795	765.94107	384.190958	-387.91849	631.978763	347.88386	-433.627744	609.220191	232.992576	-366.471931	765.300601	437.703914	-254.727698	895.325809	233.519657	-282.070258	854.668858	257.824241	-186.564831	423.257213	200.757704	-335.311833	613.5919689999999	62.334316	-321.333816	546.471682	46.477882	-411.843998	988.783172	1502.391137	-520.233524	979.9836759999999	1495.158708	-194.741277	1043.462257	1459.817027	-319.514476	922.662629	1527.404644	-364.652292	845.4633689999999	1438.854982	-145.757749	864.930203	1377.596911	-97.980006	769.395273	1337.92693	-64.97609	714.207053	1300.553275	-38.414929	900.344769	1396.954715	-579.965368	936.628451	1319.704911	-596.1923880000001	871.00882	1248.211844	-620.9195989999999	858.401874	1183.03487	-638.9374759999999	828.942355	1167.431253	-543.046532	773.013704	1208.755273	-18.370759	900.760278	1095.306115	-79.063581	854.79454	1068.491146	-36.540729	934.944166	1150.706363	-629.5337469999999	1094.268758	1198.975002	-537.975337	853.653647	1079.121143	-418.312326	715.011331	1262.800715	-120.660393	1104.175489	1134.939945	-568.202376	1008.257119	1006.790608	-484.928851	
49	1.03	1005.627597	1022.005489	-226.621113	847.765411	1082.176315	-306.507933	951.1940080000001	922.05995	-170.048744	999.491936	780.851466	-197.938847	1138.718741	698.111702	-201.072203	929.290249	878.040582	-525.7638449999999	798.940038	762.334056	-482.340208	799.886553	619.878574	-469.327537	1146.117042	491.607608	-272.954738	1060.947217	522.305738	-199.237101	978.986349	395.389629	-271.448354	735.938454	397.726547	-392.284416	601.506799	364.411565	-437.800675	578.610324	247.618231	-372.641288	799.004139	400.066742	-259.315558	954.4143299999999	214.618169	-287.128899	909.8952829999999	232.277613	-191.351459	395.117678	223.426517	-343.527074	567.108548	63.114105	-323.052261	501.235996	52.709784	-414.806665	991.689827	1509.138154	-518.820966	976.312861	1500.956101	-194.952819	1042.278709	1465.573779	-317.807587	922.891566	1532.405188	-364.978398	840.502369	1449.029145	-149.646045	857.210562	1386.796563	-100.92041	759.935914	1350.126207	-70.763909	702.422959	1314.173113	-46.188631	905.18719	1403.441481	-580.912537	942.990808	1326.576555	-596.191434	878.500939	1254.550127	-622.1809929999999	866.845332	1188.595252	-639.866534	833.390345	1174.56861	-542.423424	759.59231	1222.184964	-24.416241	888.545966	1108.605741	-81.506866	841.297328	1081.673758	-40.075879	944.426299	1161.231296	-627.914316	1098.04604	1221.408763	-534.261994	860.332354	1082.437429	-421.618766	704.974733	1276.690569	-128.68509	1112.782414	1157.219548	-562.538738	1015.502323	1009.842726	-485.862993	
50	1.04	1007.941895	1029.298069	-224.458292	850.82936	1088.141815	-308.725348	955.098057	931.231146	-167.803034	1005.025028	789.775182	-196.635086	1144.64932	709.6053439999999	-201.494587	930.192941	881.498148	-525.764555	792.850263	775.099186	-481.642556	784.249821	632.879353	-469.680583	1169.679292	497.523364	-273.363458	1080.064684	517.731461	-201.308018	1016.610902	380.759576	-274.597411	710.494113	412.475949	-396.128616	575.813057	381.867283	-442.051276	552.579881	263.215427	-379.150876	836.833454	362.123555	-265.5168	1015.271567	198.43952	-292.309864	966.775995	208.884985	-196.334593	373.23564	248.185819	-353.319973	521.6270919999999	66.352028	-325.382993	458.31381	62.265679	-418.993446	994.779685	1515.312036	-517.50488	973.034994	1505.894904	-195.524498	1041.717818	1470.406614	-316.259277	923.3927169999999	1536.483938	-365.658659	836.096711	1457.879505	-154.347418	850.06567	1395.630069	-104.039399	751.27331	1361.887829	-76.716138	691.818092	1326.949677	-54.115961	910.033508	1409.579698	-581.929469	948.947349	1333.224649	-596.620408	884.86754	1261.101062	-623.881758	874.782311	1194.132848	-641.283878	839.904949	1180.422676	-543.894999	747.296753	1234.68231	-30.694214	877.761767	1121.332454	-84.035831	829.0277579999999	1093.829888	-44.564296	953.137343	1171.557068	-626.978465	1100.437347	1242.238619	-530.9172600000001	866.1331300000001	1085.692506	-423.881025	696.036704	1289.752401	-136.806575	1119.693434	1178.283738	-557.524853	1021.831405	1012.836832	-485.886646	
51	1.05	1009.933382	1034.866564	-222.407762	853.680411	1093.440393	-309.782059	958.348557	938.790566	-165.845151	1007.810542	796.4327050000001	-196.685214	1147.001855	717.671115	-203.228442	930.159374	885.56573	-525.694363	788.354119	786.8423770000001	-480.112727	771.694163	645.293844	-469.675564	1191.06736	501.979261	-273.492714	1098.23983	511.215787	-203.503489	1054.676746	366.622368	-278.032673	689.896489	426.640512	-398.726688	555.517884	398.569432	-446.477593	530.709457	278.620262	-385.439788	878.230044	324.677509	-273.042954	1076.90175	185.541804	-297.633292	1024.765656	188.290934	-202.0265	358.191773	274.403896	-364.550864	476.959011	73.365651	-328.072399	417.049588	75.673039	-423.536792	998.0017340000001	1520.628835	-516.446119	970.237659	1509.830985	-196.301902	1041.611342	1474.23199	-314.862452	924.117248	1539.60898	-366.650321	832.224955	1465.209385	-159.79377	843.611453	1403.80058	-107.248541	743.363338	1372.732151	-82.687208	682.47828	1338.418049	-61.983477	914.666689	1414.851724	-582.808239	954.471059	1339.192544	-597.439157	890.3354	1267.17064	-626.003814	882.202277	1199.235761	-643.103652	847.535701	1185.001705	-546.8565579999999	736.307948	1245.912002	-37.079057	868.617474	1133.125962	-86.518968	818.32699	1104.628219	-49.92959	961.040352	1181.374161	-626.635994	1101.723354	1260.726196	-527.893457	870.546961	1088.987971	-424.906964	688.262234	1301.416308	-144.765592	1125.202092	1197.446404	-553.033475	1026.772518	1015.870167	-484.675041	
